<mxfile host="app.diagrams.net" modified="2020-10-28T15:46:17.090Z" agent="5.0 (Windows)" etag="B4zi88wOYuw_USRnSvTF" version="13.8.5" type="github">
  <diagram id="Y8RW_nMM7FUyLUE6UGEh" name="Page-1">
    <mxGraphModel dx="2055" dy="736" grid="1" gridSize="10" guides="1" tooltips="1" connect="1" arrows="1" fold="1" page="1" pageScale="1" pageWidth="850" pageHeight="1100" math="0" shadow="0">
      <root>
        <mxCell id="0" />
        <mxCell id="1" parent="0" />
        <mxCell id="-_0p66DI5QI1zj4v-Ik1-5" value="gfd" style="whiteSpace=wrap;html=1;aspect=fixed;shadow=1;rounded=1;" parent="1" vertex="1">
          <mxGeometry x="-480" y="200" width="130" height="130" as="geometry" />
        </mxCell>
        <mxCell id="-_0p66DI5QI1zj4v-Ik1-6" value="" style="rounded=1;whiteSpace=wrap;html=1;shadow=1;" parent="1" vertex="1">
          <mxGeometry x="-390" y="90" width="120" height="60" as="geometry" />
        </mxCell>
        <mxCell id="-_0p66DI5QI1zj4v-Ik1-9" value="Hämta kundinformation" style="shape=step;perimeter=stepPerimeter;whiteSpace=wrap;html=1;fixedSize=1;rounded=1;shadow=1;fontStyle=1" parent="1" vertex="1">
          <mxGeometry y="120" width="200" height="120" as="geometry" />
        </mxCell>
        <mxCell id="-_0p66DI5QI1zj4v-Ik1-10" value="Farmaceut" style="shape=actor;whiteSpace=wrap;html=1;rounded=1;shadow=1;labelPosition=center;verticalLabelPosition=bottom;align=center;verticalAlign=top;fillColor=#ffe6cc;strokeColor=#d79b00;" parent="1" vertex="1">
          <mxGeometry x="10" y="20" width="40" height="60" as="geometry" />
        </mxCell>
        <mxCell id="-_0p66DI5QI1zj4v-Ik1-12" value="Legitimationsregister (FORS)" style="whiteSpace=wrap;html=1;fillColor=#bac8d3;strokeColor=#23445d;rounded=1;" parent="1" vertex="1">
          <mxGeometry y="520" width="795" height="20" as="geometry" />
        </mxCell>
        <mxCell id="Q4kJV671iwrY0cKDhgk4-12" style="edgeStyle=orthogonalEdgeStyle;rounded=0;orthogonalLoop=1;jettySize=auto;html=1;exitX=1;exitY=0.5;exitDx=0;exitDy=0;" edge="1" parent="1" source="-_0p66DI5QI1zj4v-Ik1-9" target="Q4kJV671iwrY0cKDhgk4-13">
          <mxGeometry relative="1" as="geometry">
            <mxPoint x="-40" y="180" as="sourcePoint" />
          </mxGeometry>
        </mxCell>
        <mxCell id="Q4kJV671iwrY0cKDhgk4-1" value="Varuregister (VARA)" style="whiteSpace=wrap;html=1;fillColor=#fff2cc;strokeColor=#d6b656;rounded=1;" vertex="1" parent="1">
          <mxGeometry y="440" width="795" height="20" as="geometry" />
        </mxCell>
        <mxCell id="Q4kJV671iwrY0cKDhgk4-2" value="Arbetsplatskoder (ARKO)" style="whiteSpace=wrap;html=1;fillColor=#dae8fc;strokeColor=#6c8ebf;rounded=1;" vertex="1" parent="1">
          <mxGeometry y="480" width="795" height="20" as="geometry" />
        </mxCell>
        <mxCell id="Q4kJV671iwrY0cKDhgk4-3" value="Nationella läkemedelslistan (NLL)" style="whiteSpace=wrap;html=1;fillColor=#d0cee2;strokeColor=#56517e;rounded=1;" vertex="1" parent="1">
          <mxGeometry y="560" width="795" height="20" as="geometry" />
        </mxCell>
        <mxCell id="Q4kJV671iwrY0cKDhgk4-4" value="Registret för individuella förskrivarbehörigheter (RIF)" style="whiteSpace=wrap;html=1;fillColor=#dae8fc;strokeColor=#6c8ebf;rounded=1;" vertex="1" parent="1">
          <mxGeometry y="600" width="795" height="20" as="geometry" />
        </mxCell>
        <mxCell id="Q4kJV671iwrY0cKDhgk4-5" value="Prisinformation / Högkostnadsdatabasen (PRIS/HKDB)" style="whiteSpace=wrap;html=1;fillColor=#dae8fc;strokeColor=#6c8ebf;rounded=1;" vertex="1" parent="1">
          <mxGeometry y="640" width="795" height="20" as="geometry" />
        </mxCell>
        <mxCell id="Q4kJV671iwrY0cKDhgk4-7" value="Expeditionsställeregister (EXPO)" style="whiteSpace=wrap;html=1;fillColor=#dae8fc;strokeColor=#6c8ebf;rounded=1;" vertex="1" parent="1">
          <mxGeometry y="720" width="795" height="20" as="geometry" />
        </mxCell>
        <mxCell id="Q4kJV671iwrY0cKDhgk4-8" value="Elektroniskt expertstöd (EES)" style="whiteSpace=wrap;html=1;fillColor=#dae8fc;strokeColor=#6c8ebf;rounded=1;" vertex="1" parent="1">
          <mxGeometry y="680" width="795" height="20" as="geometry" />
        </mxCell>
        <mxCell id="Q4kJV671iwrY0cKDhgk4-9" value="Försäljningstransaktioner (FOTA)" style="whiteSpace=wrap;html=1;fillColor=#dae8fc;strokeColor=#6c8ebf;rounded=1;" vertex="1" parent="1">
          <mxGeometry y="760" width="795" height="20" as="geometry" />
        </mxCell>
        <mxCell id="Q4kJV671iwrY0cKDhgk4-10" value="Apotekspersonal" style="shape=actor;whiteSpace=wrap;html=1;rounded=1;shadow=1;labelPosition=center;verticalLabelPosition=bottom;align=center;verticalAlign=top;fillColor=#b0e3e6;strokeColor=#0e8088;" vertex="1" parent="1">
          <mxGeometry x="100" y="20" width="40" height="60" as="geometry" />
        </mxCell>
        <mxCell id="Q4kJV671iwrY0cKDhgk4-13" value="Välj recept" style="shape=step;perimeter=stepPerimeter;whiteSpace=wrap;html=1;fixedSize=1;rounded=1;shadow=1;fontStyle=1" vertex="1" parent="1">
          <mxGeometry x="240" y="120" width="200" height="120" as="geometry" />
        </mxCell>
        <mxCell id="Q4kJV671iwrY0cKDhgk4-16" value="" style="shape=actor;whiteSpace=wrap;html=1;rounded=1;shadow=1;labelPosition=center;verticalLabelPosition=bottom;align=center;verticalAlign=top;fillColor=#b0e3e6;strokeColor=#0e8088;" vertex="1" parent="1">
          <mxGeometry x="360" width="20" height="30" as="geometry" />
        </mxCell>
        <mxCell id="Q4kJV671iwrY0cKDhgk4-17" value="" style="shape=actor;whiteSpace=wrap;html=1;rounded=1;shadow=1;labelPosition=center;verticalLabelPosition=bottom;align=center;verticalAlign=top;fillColor=#fad7ac;strokeColor=#b46504;" vertex="1" parent="1">
          <mxGeometry x="20" y="130" width="20" height="30" as="geometry" />
        </mxCell>
        <mxCell id="Q4kJV671iwrY0cKDhgk4-20" value="Folkbokförda personer (FOLK)" style="whiteSpace=wrap;html=1;fillColor=#dae8fc;strokeColor=#6c8ebf;rounded=1;" vertex="1" parent="1">
          <mxGeometry y="800" width="795" height="20" as="geometry" />
        </mxCell>
        <mxCell id="Q4kJV671iwrY0cKDhgk4-26" value="" style="endArrow=classic;html=1;exitX=0.5;exitY=1;exitDx=0;exitDy=0;strokeColor=#FF0000;" edge="1" parent="1" source="-_0p66DI5QI1zj4v-Ik1-9">
          <mxGeometry relative="1" as="geometry">
            <mxPoint x="-150" y="350" as="sourcePoint" />
            <mxPoint x="100" y="797" as="targetPoint" />
          </mxGeometry>
        </mxCell>
        <mxCell id="Q4kJV671iwrY0cKDhgk4-28" value="TA Hämta patientinformation - Delfunktion 2" style="edgeLabel;resizable=0;html=1;align=right;verticalAlign=bottom;horizontal=0;labelPosition=left;verticalLabelPosition=top;spacingTop=0;spacingRight=10;" connectable="0" vertex="1" parent="Q4kJV671iwrY0cKDhgk4-26">
          <mxGeometry x="-1" relative="1" as="geometry" />
        </mxCell>
      </root>
    </mxGraphModel>
  </diagram>
</mxfile>
